<svg width="30.000000" height="30.000000" viewBox="0 0 30 30" fill="none" xmlns="http://www.w3.org/2000/svg" xmlns:xlink="http://www.w3.org/1999/xlink">
	<defs/>
	<rect id="Iconly/Light/Show" width="30.000000" height="30.000000" fill="#FFFFFF" fill-opacity="0"/>
	<path id="Stroke 1" d="M14.99 19.01C12.81 19.01 11.04 17.24 11.04 15.06C11.04 12.88 12.81 11.11 14.99 11.11C17.18 11.11 18.95 12.88 18.95 15.06C18.95 17.24 17.18 19.01 14.99 19.01Z" stroke="#FFFFFF" stroke-opacity="1.000000" stroke-width="1.500000" stroke-linejoin="round"/>
	<path id="Stroke 3" d="M26.56 15.06C24.11 9.36 19.75 5.93 14.99 5.93L15 5.93C10.24 5.93 5.88 9.36 3.43 15.06C5.88 20.77 10.24 24.19 15 24.19L14.99 24.19C19.75 24.19 24.11 20.77 26.56 15.06Z" stroke="#FFFFFF" stroke-opacity="1.000000" stroke-width="1.500000" stroke-linejoin="round"/>
</svg>
