<svg width="20.000000" height="20.000000" viewBox="0 0 20 20" fill="none" xmlns="http://www.w3.org/2000/svg" xmlns:xlink="http://www.w3.org/1999/xlink">
	<desc>
			Created with Pixso.
	</desc>
	<defs>
		<clipPath id="clip65_683">
			<rect id="trash 1" width="20.000000" height="20.000000" fill="white" fill-opacity="0"/>
		</clipPath>
	</defs>
	<rect id="trash 1" width="20.000000" height="20.000000" fill="#FFFFFF" fill-opacity="0"/>
	<g clip-path="url(#clip65_683)">
		<path id="Vector" d="M18.57 2.85L13.57 2.85L13.57 2.14C13.57 0.95 12.61 0 11.42 0L8.57 0C7.38 0 6.42 0.95 6.42 2.14L6.42 2.85L1.42 2.85C1.03 2.85 0.71 3.17 0.71 3.57C0.71 3.96 1.03 4.28 1.42 4.28L2.2 4.28L3.57 19.35C3.6 19.71 3.91 20 4.28 20L15.71 20C16.08 20 16.39 19.71 16.42 19.35L17.79 4.28L18.57 4.28C18.96 4.28 19.28 3.96 19.28 3.57C19.28 3.17 18.96 2.85 18.57 2.85ZM7.85 2.14C7.85 1.74 8.17 1.42 8.57 1.42L11.42 1.42C11.82 1.42 12.14 1.74 12.14 2.14L12.14 2.85L7.85 2.85L7.85 2.14L7.85 2.14ZM15.06 18.57L4.93 18.57L3.64 4.28L7.14 4.28L16.36 4.28L15.06 18.57Z" fill="#4D4D4D" fill-opacity="0.300000" fill-rule="nonzero"/>
		<path id="Vector" d="M7.85 16.38C7.85 16.37 7.85 16.37 7.85 16.37L7.14 6.37C7.11 5.98 6.77 5.68 6.37 5.71C5.98 5.74 5.68 6.08 5.71 6.47L6.42 16.47C6.45 16.85 6.76 17.14 7.14 17.14L7.19 17.14C7.58 17.11 7.88 16.77 7.85 16.38Z" fill="#4D4D4D" fill-opacity="0.300000" fill-rule="nonzero"/>
		<path id="Vector" d="M10 5.71C9.6 5.71 9.28 6.03 9.28 6.42L9.28 16.42C9.28 16.82 9.6 17.14 10 17.14C10.39 17.14 10.71 16.82 10.71 16.42L10.71 6.42C10.71 6.03 10.39 5.71 10 5.71Z" fill="#4D4D4D" fill-opacity="0.300000" fill-rule="nonzero"/>
		<path id="Vector" d="M13.62 5.71C13.22 5.68 12.88 5.98 12.85 6.37L12.14 16.37C12.11 16.77 12.4 17.11 12.8 17.14C12.8 17.14 12.8 17.14 12.8 17.14L12.85 17.14C13.23 17.14 13.54 16.85 13.57 16.47L14.28 6.47C14.31 6.08 14.01 5.74 13.62 5.71Z" fill="#4D4D4D" fill-opacity="0.300000" fill-rule="nonzero"/>
	</g>
</svg>
