<svg width="28.000000" height="26.000000" viewBox="0 0 28 26" fill="none" xmlns="http://www.w3.org/2000/svg" xmlns:xlink="http://www.w3.org/1999/xlink">
	<defs/>
	<path id="Vector" d="M28 9.28L23.24 9.28L18.25 0.45C18 0.01 17.46 -0.14 17.04 0.13C16.63 0.39 16.5 0.96 16.74 1.4L21.2 9.28L6.79 9.28L11.25 1.4C11.49 0.96 11.36 0.39 10.95 0.13C10.53 -0.14 9.99 0.01 9.74 0.45L4.75 9.28L0 9.28L0 11.14L1.89 11.14L4.12 23.72C4.35 25.04 5.43 26 6.7 26L21.29 26C22.56 26 23.64 25.04 23.87 23.72L26.1 11.14L28 11.14L28 9.28ZM22.15 23.38C22.08 23.82 21.71 24.14 21.29 24.14L6.7 24.14C6.28 24.14 5.91 23.82 5.84 23.38L3.67 11.14L24.32 11.14L22.15 23.38Z" fill="#FFFFFF" fill-opacity="1.000000" fill-rule="nonzero"/>
</svg>
