<svg width="20.000000" height="19.000000" viewBox="0 0 20 19" fill="none" xmlns="http://www.w3.org/2000/svg" xmlns:xlink="http://www.w3.org/1999/xlink">
	<desc>
			Created with Pixso.
	</desc>
	<defs/>
	<path id="Vector" d="M20 6.57L16.6 6.57L13.03 0.31C12.85 0 12.47 -0.1 12.17 0.09C11.88 0.28 11.78 0.68 11.96 0.99L15.14 6.57L4.85 6.57L8.03 0.99C8.21 0.68 8.11 0.28 7.82 0.09C7.52 -0.1 7.14 0 6.96 0.31L3.39 6.57L0 6.57L0 7.89L1.35 7.89L2.94 16.81C3.11 17.74 3.88 18.42 4.78 18.42L15.21 18.42C16.11 18.42 16.88 17.74 17.05 16.81L18.64 7.89L20 7.89C20 7.89 20 6.57 20 6.57ZM15.82 16.56C15.77 16.87 15.51 17.1 15.21 17.1L4.78 17.1C4.48 17.1 4.22 16.87 4.17 16.56L2.62 7.89L17.37 7.89L15.82 16.56Z" fill="#FFFFFF" fill-opacity="1.000000" fill-rule="nonzero"/>
</svg>
