<svg width="23.000000" height="24.000000" viewBox="0 0 23 24" fill="none" xmlns="http://www.w3.org/2000/svg" xmlns:xlink="http://www.w3.org/1999/xlink">
	
	<defs/>
	<path id="Shape" d="M6.16296 -0.115967C7.41406 -0.172607 7.81409 -0.186523 10.9973 -0.186523L11.001 -0.186523C14.1853 -0.186523 14.5839 -0.172607 15.835 -0.115967C17.0841 -0.059082 17.9373 0.137695 18.6852 0.42627C19.4576 0.724243 20.1104 1.12305 20.7631 1.77234C21.4156 2.42114 21.8167 3.07239 22.1173 3.84009C22.4058 4.58228 22.6038 5.43054 22.6624 6.67322C22.7186 7.91821 22.7333 8.31616 22.7333 11.4862C22.7333 14.6564 22.7186 15.0532 22.6624 16.2983C22.6038 17.5405 22.4058 18.389 22.1173 19.1315C21.8167 19.8989 21.4156 20.5502 20.7631 21.199C20.1111 21.8483 19.4574 22.248 18.6859 22.5461C17.9395 22.8348 17.0858 23.0316 15.8367 23.0885C14.5851 23.1451 14.1864 23.1591 10.9995 23.1591C7.81323 23.1591 7.41357 23.1451 6.16199 23.0885C4.91309 23.0316 4.06018 22.8348 3.31372 22.5461C2.54248 22.248 1.88782 21.8483 1.23584 21.199C0.583496 20.5502 0.182495 19.8989 -0.117432 19.1312C-0.407349 18.389 -0.605103 17.5408 -0.662476 16.2981C-0.719238 15.053 -0.733398 14.6564 -0.733398 11.4862C-0.733398 8.31616 -0.71875 7.91797 -0.66272 6.67297C-0.606567 5.43079 -0.408569 4.58228 -0.117676 3.83984C0.182983 3.07239 0.583984 2.42114 1.23657 1.77234C1.88879 1.12329 2.54346 0.724487 3.31519 0.42627C4.06116 0.137695 4.91382 -0.059082 6.16296 -0.115967ZM10.6096 1.91724L10.6101 1.91724C10.7355 1.91724 10.8658 1.91724 11.0012 1.91724C14.134 1.91724 14.5054 1.92847 15.7424 1.98438C16.8865 2.0365 17.5074 2.22656 17.921 2.38635C18.4685 2.59802 18.8589 2.85083 19.2694 3.2594C19.6801 3.66797 19.9342 4.05701 20.1475 4.60181C20.308 5.01282 20.4994 5.63049 20.5515 6.76855C20.6077 7.99902 20.6199 8.36865 20.6199 11.4839C20.6199 14.599 20.6077 14.9686 20.5515 16.1992C20.4991 17.3373 20.308 17.955 20.1475 18.366C19.9347 18.9106 19.6801 19.2986 19.2694 19.7068C18.8586 20.1154 18.4688 20.3683 17.921 20.5798C17.5079 20.7404 16.8865 20.9301 15.7424 20.9821C14.5056 21.038 14.134 21.0502 11.0012 21.0502C7.86816 21.0502 7.49683 21.038 6.25989 20.9821C5.11584 20.9296 4.495 20.7394 4.08118 20.5796C3.53357 20.368 3.14246 20.1151 2.73181 19.7065C2.32117 19.2981 2.06689 18.9099 1.85376 18.365C1.69312 17.954 1.50171 17.3363 1.44971 16.1982C1.39343 14.9677 1.3822 14.598 1.3822 11.481C1.3822 8.36377 1.39343 7.99609 1.44971 6.76562C1.50195 5.62756 1.69312 5.00989 1.85376 4.59839C2.06641 4.05371 2.32117 3.66455 2.73181 3.25598C3.14246 2.84741 3.53357 2.5946 4.08118 2.38245C4.49475 2.22205 5.11584 2.03235 6.25989 1.97998C7.34229 1.9314 7.76172 1.91675 9.94861 1.91443L9.94861 1.91724C10.1528 1.91699 10.3724 1.91711 10.6094 1.91724L10.6096 1.91724ZM15.8563 5.25549C15.8563 4.48193 16.4869 3.85522 17.2643 3.85522L17.2643 3.85474C18.0416 3.85474 18.6724 4.48218 18.6724 5.25549C18.6724 6.02881 18.0416 6.65625 17.2643 6.65625C16.4869 6.65625 15.8563 6.02881 15.8563 5.25549ZM11.0009 5.49207C7.67334 5.49219 4.97546 8.17615 4.97546 11.4865C4.97546 14.7969 7.67346 17.4797 11.0011 17.4797C14.3287 17.4797 17.0258 14.7969 17.0258 11.4865C17.0258 8.17603 14.3285 5.49207 11.0009 5.49207ZM14.9124 11.4865C14.9124 9.33752 13.1611 7.59558 11.0012 7.59558C8.84106 7.59558 7.09009 9.33752 7.09009 11.4865C7.09009 13.6353 8.84106 15.3774 11.0012 15.3774C13.1611 15.3774 14.9124 13.6353 14.9124 11.4865Z" clip-rule="evenodd" fill="#FFFFFF" fill-opacity="1.000000" fill-rule="evenodd"/>
</svg>
