<svg width="23.000000" height="13.000000" viewBox="0 0 23 13" fill="none" xmlns="http://www.w3.org/2000/svg" xmlns:xlink="http://www.w3.org/1999/xlink">
	<defs/>
	<path id="Shape" d="M12.15 12.66C12.15 12.66 12.57 12.62 12.79 12.39C12.98 12.18 12.98 11.79 12.98 11.79C12.98 11.79 12.95 9.95 13.83 9.68C14.69 9.41 15.79 11.46 16.96 12.24C17.85 12.84 18.52 12.71 18.52 12.71L21.66 12.66C21.66 12.66 23.3 12.57 22.52 11.31C22.46 11.2 22.07 10.38 20.19 8.67C18.22 6.89 18.49 7.18 20.85 4.1C22.3 2.22 22.87 1.08 22.69 0.59C22.52 0.12 21.46 0.24 21.46 0.24L17.93 0.27C17.93 0.27 17.67 0.23 17.48 0.34C17.29 0.46 17.16 0.71 17.16 0.71C17.16 0.71 16.61 2.17 15.86 3.4C14.29 6.01 13.66 6.14 13.4 5.98C12.81 5.6 12.96 4.47 12.96 3.66C12.96 1.13 13.35 0.08 12.19 -0.19C11.81 -0.28 11.53 -0.34 10.55 -0.35C9.29 -0.36 8.22 -0.35 7.62 -0.06C7.22 0.13 6.91 0.56 7.1 0.59C7.33 0.62 7.86 0.72 8.14 1.1C8.5 1.58 8.49 2.66 8.49 2.66C8.49 2.66 8.69 5.63 8 6C7.52 6.25 6.87 5.73 5.47 3.37C4.75 2.16 4.21 0.82 4.21 0.82C4.21 0.82 4.11 0.57 3.92 0.44C3.69 0.27 3.38 0.22 3.38 0.22L0.03 0.24C0.03 0.24 -0.48 0.26 -0.66 0.47C-0.83 0.66 -0.67 1.05 -0.67 1.05C-0.67 1.05 1.95 7.05 4.92 10.08C7.65 12.85 10.74 12.66 10.74 12.66L12.15 12.66Z" fill="#FFFFFF" fill-opacity="1.000000" fill-rule="evenodd"/>
</svg>
