<svg width="7.000000" height="10.000000" viewBox="0 0 7 10" fill="none" xmlns="http://www.w3.org/2000/svg" xmlns:xlink="http://www.w3.org/1999/xlink">
	<defs/>
	<path id="?" d="M3.78 6.85L2.18 6.85C2.16 6.35 2.21 5.92 2.32 5.54C2.44 5.16 2.6 4.85 2.8 4.6C3 4.35 3.21 4.13 3.41 3.92C3.62 3.72 3.81 3.49 4 3.25C4.19 3 4.33 2.74 4.39 2.47C4.47 1.93 4.35 1.5 4.06 1.19C3.76 0.88 3.36 0.72 2.88 0.72C2.52 0.72 2.18 0.84 1.89 1.08C1.59 1.32 1.41 1.64 1.35 2.04L0 2.04C0.03 1.14 0.31 0.46 0.82 -0.01C1.34 -0.47 2.03 -0.7 2.87 -0.7C3.64 -0.72 4.32 -0.53 4.9 -0.13C5.48 0.27 5.83 0.79 5.94 1.44C6 1.8 6.01 2.1 5.97 2.36C5.94 2.7 5.83 3.01 5.65 3.31C5.48 3.6 5.29 3.85 5.08 4.08C4.87 4.3 4.67 4.53 4.46 4.79C4.26 5.03 4.09 5.32 3.96 5.68C3.83 6.02 3.77 6.41 3.78 6.85ZM3.62 9.05C3.45 9.21 3.24 9.28 2.98 9.28C2.72 9.28 2.49 9.21 2.31 9.05C2.13 8.89 2.04 8.69 2.04 8.43C2.04 8.18 2.13 7.98 2.31 7.82C2.49 7.66 2.72 7.58 2.98 7.58C3.24 7.58 3.45 7.66 3.62 7.82C3.8 7.98 3.89 8.18 3.89 8.43C3.89 8.69 3.8 8.89 3.62 9.05Z" fill="#444B58" fill-opacity="1.000000" fill-rule="nonzero"/>
</svg>
